<svg width="256" height="256" viewBox="0 0 256 256" fill="none" xmlns="http://www.w3.org/2000/svg">
<rect width="256" height="256" rx="60" fill="#059669"/>
<rect x="40" y="70" width="40" height="30" rx="4" fill="white"/>
<rect x="100" y="70" width="40" height="30" rx="4" fill="white"/>
<rect x="160" y="70" width="40" height="30" rx="4" fill="white"/>
<rect x="40" y="120" width="40" height="30" rx="4" fill="white"/>
<rect x="100" y="120" width="40" height="30" rx="4" fill="white"/>
<rect x="160" y="120" width="40" height="30" rx="4" fill="white"/>
<rect x="70" y="170" width="116" height="30" rx="4" fill="#FEF3C7"/>
<path d="M60 100 L60 120" stroke="#059669" stroke-width="3"/>
<path d="M120 100 L120 120" stroke="#059669" stroke-width="3"/>
<path d="M180 100 L180 120" stroke="#059669" stroke-width="3"/>
<path d="M60 150 L60 170 L128 170" stroke="#059669" stroke-width="3"/>
<path d="M120 150 L120 170" stroke="#059669" stroke-width="3"/>
<path d="M180 150 L180 170 L128 170" stroke="#059669" stroke-width="3"/>
<text x="60" y="88" text-anchor="middle" fill="#059669" font-family="monospace" font-size="8">DATA</text>
<text x="120" y="88" text-anchor="middle" fill="#059669" font-family="monospace" font-size="8">DATA</text>
<text x="180" y="88" text-anchor="middle" fill="#059669" font-family="monospace" font-size="8">DATA</text>
<text x="128" y="188" text-anchor="middle" fill="#059669" font-family="monospace" font-size="10" font-weight="bold">WAREHOUSE</text>
<text x="128" y="225" text-anchor="middle" fill="white" font-family="Arial, sans-serif" font-size="14" font-weight="bold">DATA ENG</text>
</svg>