<svg width="256" height="256" viewBox="0 0 256 256" fill="none" xmlns="http://www.w3.org/2000/svg">
<rect width="256" height="256" rx="60" fill="#F80000"/>
<path d="M128 64C95.7 64 69.3 69.8 50.2 79.4C31.1 89 21 101.3 21 115.2V140.8C21 154.7 31.1 167 50.2 176.6C69.3 186.2 95.7 192 128 192C160.3 192 186.7 186.2 205.8 176.6C224.9 167 235 154.7 235 140.8V115.2C235 101.3 224.9 89 205.8 79.4C186.7 69.8 160.3 64 128 64Z" fill="white"/>
<path d="M128 80C154.5 80 177.8 84.5 194.4 92.3C211 100.1 220 110.3 220 121.6C220 132.9 211 143.1 194.4 150.9C177.8 158.7 154.5 163.2 128 163.2C101.5 163.2 78.2 158.7 61.6 150.9C45 143.1 36 132.9 36 121.6C36 110.3 45 100.1 61.6 92.3C78.2 84.5 101.5 80 128 80Z" fill="#F80000"/>
<path d="M128 96C147.9 96 165.7 99.2 178.7 104.8C191.7 110.4 199 117.8 199 126C199 134.2 191.7 141.6 178.7 147.2C165.7 152.8 147.9 156 128 156C108.1 156 90.3 152.8 77.3 147.2C64.3 141.6 57 134.2 57 126C57 117.8 64.3 110.4 77.3 104.8C90.3 99.2 108.1 96 128 96Z" fill="white"/>
<text x="128" y="210" text-anchor="middle" fill="white" font-family="Arial, sans-serif" font-size="24" font-weight="bold">ORACLE</text>
</svg>